<?xml version="1.0" standalone="no"?>
<!DOCTYPE svg PUBLIC "-//W3C//DTD SVG 20010904//EN"
 "http://www.w3.org/TR/2001/REC-SVG-20010904/DTD/svg10.dtd">
<svg version="1.0" xmlns="http://www.w3.org/2000/svg"
 width="820.000000pt" height="1060.000000pt" viewBox="0 0 820.000000 1060.000000"
 preserveAspectRatio="xMidYMid meet">

<g transform="translate(0.000000,1060.000000) scale(0.100000,-0.100000)"
fill="#000000" stroke="none">
<path d="M730 10190 c-179 -3 -330 -9 -336 -13 -20 -12 -26 -1925 -18 -5900
l7 -3877 3712 0 3712 0 6 258 c4 141 8 1786 9 3654 l3 3398 -1245 1245 -1245
1245 -2140 -2 c-1177 -1 -2286 -4 -2465 -8z m4354 -1547 c4 -642 10 -1171 12
-1175 3 -5 326 -8 718 -8 392 0 916 -3 1164 -7 l452 -6 0 -3334 0 -3333 -3335
0 -3335 0 0 4515 0 4515 2158 0 2159 0 7 -1167z m1481 -182 l610 -611 -853 0
-852 0 0 743 c0 408 3 786 7 839 l6 97 236 -229 c130 -126 510 -504 846 -839z"/>
<path d="M1648 8593 c-62 -65 -98 -124 -98 -158 0 -37 33 -90 93 -152 l41 -43
1236 0 1236 0 51 53 c111 114 109 171 -10 295 l-41 42 -1236 0 -1236 0 -36
-37z"/>
<path d="M1633 7397 c-59 -62 -83 -104 -83 -145 0 -31 39 -93 98 -154 l36 -38
1236 0 1236 0 41 43 c119 123 121 180 10 295 l-51 52 -1237 0 -1236 0 -50 -53z"/>
<path d="M1638 6222 c-115 -120 -115 -166 0 -284 l56 -58 2407 0 2407 0 60 65
c102 108 101 163 -1 270 l-62 65 -2406 0 -2406 0 -55 -58z"/>
<path d="M1627 5030 c-102 -107 -101 -154 5 -266 l51 -54 2418 0 2417 0 56 63
c95 105 93 156 -6 262 l-60 65 -2408 0 -2408 0 -65 -70z"/>
<path d="M1643 3878 c-59 -62 -93 -118 -93 -154 0 -36 33 -90 93 -151 l41 -43
2411 0 2412 0 60 63 c104 108 103 161 -5 270 l-56 57 -2411 0 -2411 0 -41 -42z"/>
<path d="M1633 2687 c-59 -62 -83 -104 -83 -145 0 -31 39 -93 98 -154 l36 -38
2411 0 2412 0 60 62 c104 109 103 162 -5 271 l-56 57 -2412 0 -2411 0 -50 -53z"/>
</g>
</svg>
