<?xml version="1.0" standalone="no"?>
<!DOCTYPE svg PUBLIC "-//W3C//DTD SVG 20010904//EN"
 "http://www.w3.org/TR/2001/REC-SVG-20010904/DTD/svg10.dtd">
<svg version="1.0" xmlns="http://www.w3.org/2000/svg"
 width="200.000000pt" height="200.000000pt" viewBox="0 0 200.000000 200.000000"
 preserveAspectRatio="xMidYMid meet">

<g transform="translate(0.000000,200.000000) scale(0.100000,-0.100000)"
fill="#049ff7" stroke="none">
<path d="M242 1564 c-13 -9 -54 -79 -93 -156 -58 -116 -68 -143 -57 -153 16
-15 884 -555 892 -555 3 0 6 13 6 29 0 26 -25 43 -425 286 -234 141 -425 262
-425 269 0 6 30 73 66 149 37 76 65 140 62 142 -2 3 -14 -2 -26 -11z"/>
<path d="M1730 1574 c0 -3 32 -71 70 -151 39 -81 69 -147 68 -148 -2 -1 -195
-118 -430 -260 -402 -243 -428 -260 -428 -287 0 -15 3 -28 7 -28 5 0 885 543
903 557 2 2 -29 71 -70 153 -51 103 -81 152 -97 159 -13 6 -23 8 -23 5z"/>
<path d="M445 1441 l-55 -111 40 -29 c21 -15 87 -45 146 -65 184 -64 297 -133
386 -235 l41 -49 21 31 c32 47 148 140 224 180 37 19 113 51 170 71 116 40
138 50 169 78 l22 20 -55 110 c-45 90 -58 108 -72 102 -9 -4 -68 -27 -131 -51
-63 -24 -142 -58 -175 -76 -68 -36 -153 -116 -162 -152 -8 -32 -20 -32 -28 1
-10 37 -92 114 -162 151 -33 18 -112 52 -175 76 -63 24 -122 47 -131 51 -14 6
-27 -12 -73 -103z"/>
<path d="M402 1527 c-25 -10 -41 -27 -68 -77 -20 -36 -51 -93 -70 -127 l-34
-62 337 -203 c186 -112 341 -204 345 -206 3 -2 21 10 38 25 l32 28 -104 101
c-111 108 -173 145 -323 194 -84 27 -162 65 -192 92 l-22 20 55 109 c29 60 54
111 54 114 0 7 -10 5 -48 -8z"/>
<path d="M1604 1427 l54 -115 -21 -20 c-31 -28 -93 -58 -195 -93 -164 -58
-209 -85 -319 -192 -100 -97 -103 -101 -86 -120 41 -45 34 -48 393 169 l340
206 -41 76 c-91 167 -99 180 -123 186 -13 3 -31 9 -40 12 -11 4 2 -31 38 -109z"/>
<path d="M612 828 c-35 -20 -61 -45 -78 -75 -15 -24 -25 -46 -22 -48 2 -2 38
16 80 41 63 37 80 43 97 35 73 -39 6 -118 -207 -245 -83 -50 -89 -55 -120
-119 -25 -53 -30 -72 -22 -87 10 -18 32 -6 303 157 160 97 298 181 304 187 10
9 -18 31 -122 94 -74 45 -140 84 -147 87 -7 2 -37 -10 -66 -27z"/>
<path d="M1195 779 c-71 -44 -136 -84 -143 -88 -15 -9 -9 -13 365 -239 224
-136 233 -140 244 -120 9 17 6 32 -21 87 -30 62 -36 69 -109 109 -42 23 -108
66 -146 95 -100 76 -126 130 -73 158 16 8 34 2 96 -35 42 -25 78 -43 80 -41 2
2 -6 23 -19 46 -16 29 -42 53 -79 75 -30 18 -57 33 -60 33 -3 0 -63 -36 -135
-80z"/>
<path d="M588 714 c-43 -24 -78 -48 -78 -53 0 -5 6 -14 14 -20 11 -9 32 0 101
43 78 49 85 56 66 65 -25 14 -14 18 -103 -35z"/>
<path d="M1313 753 c-24 -9 -13 -22 69 -72 71 -43 85 -49 96 -37 8 8 11 19 8
24 -6 10 -149 93 -157 91 -2 0 -10 -3 -16 -6z"/>
</g>
</svg>
